<?xml version="1.0" encoding="UTF-8" standalone="no"?><svg xmlns="http://www.w3.org/2000/svg" xmlns:xlink="http://www.w3.org/1999/xlink" contentScriptType="application/ecmascript" contentStyleType="text/css" height="747px" preserveAspectRatio="none" style="width:1176px;height:747px;" version="1.1" viewBox="0 0 1176 747" width="1176px" zoomAndPan="magnify"><defs><filter height="300%" id="fzcds9qr2vfn" width="300%" x="-1" y="-1"><feGaussianBlur result="blurOut" stdDeviation="2.0"/><feColorMatrix in="blurOut" result="blurOut2" type="matrix" values="0 0 0 0 0 0 0 0 0 0 0 0 0 0 0 0 0 0 .4 0"/><feOffset dx="4.0" dy="4.0" in="blurOut2" result="blurOut3"/><feBlend in="SourceGraphic" in2="blurOut3" mode="normal"/></filter></defs><g><text fill="#000000" font-family="sans-serif" font-size="18" lengthAdjust="spacingAndGlyphs" textLength="433" x="375" y="16.708">Spring PetClinic - Web Application - Components</text><!--cluster WebApplication--><polygon fill="#FFFFFF" filter="url(#fzcds9qr2vfn)" points="22,174.9531,150,174.9531,157,197.25,1140,197.25,1140,620.9531,22,620.9531,22,174.9531" style="stroke: #000000; stroke-width: 1.5;"/><line style="stroke: #000000; stroke-width: 1.5;" x1="22" x2="157" y1="197.25" y2="197.25"/><text fill="#000000" font-family="sans-serif" font-size="14" font-weight="bold" lengthAdjust="spacingAndGlyphs" textLength="122" x="26" y="189.9482">WebApplication</text><!--entity ClinicService--><rect fill="#FEFECE" filter="url(#fzcds9qr2vfn)" height="52.5938" style="stroke: #A80036; stroke-width: 1.5;" width="137" x="558.5" y="323.9531"/><rect fill="#FEFECE" height="5" style="stroke: #A80036; stroke-width: 1.5;" width="10" x="553.5" y="328.9531"/><rect fill="#FEFECE" height="5" style="stroke: #A80036; stroke-width: 1.5;" width="10" x="553.5" y="366.5469"/><text fill="#000000" font-family="sans-serif" font-size="14" font-style="italic" lengthAdjust="spacingAndGlyphs" textLength="117" x="568.5" y="346.9482">«Spring Service»</text><text fill="#000000" font-family="sans-serif" font-size="14" lengthAdjust="spacingAndGlyphs" textLength="86" x="584" y="363.2451">ClinicService</text><!--entity CrashController--><rect fill="#FEFECE" filter="url(#fzcds9qr2vfn)" height="52.5938" style="stroke: #A80036; stroke-width: 1.5;" width="189" x="38.5" y="209.9531"/><rect fill="#FEFECE" height="5" style="stroke: #A80036; stroke-width: 1.5;" width="10" x="33.5" y="214.9531"/><rect fill="#FEFECE" height="5" style="stroke: #A80036; stroke-width: 1.5;" width="10" x="33.5" y="252.5469"/><text fill="#000000" font-family="sans-serif" font-size="14" font-style="italic" lengthAdjust="spacingAndGlyphs" textLength="169" x="48.5" y="232.9482">«Spring MVC Controller»</text><text fill="#000000" font-family="sans-serif" font-size="14" lengthAdjust="spacingAndGlyphs" textLength="107" x="79.5" y="249.2451">CrashController</text><!--entity OwnerController--><rect fill="#FEFECE" filter="url(#fzcds9qr2vfn)" height="52.5938" style="stroke: #A80036; stroke-width: 1.5;" width="189" x="262.5" y="209.9531"/><rect fill="#FEFECE" height="5" style="stroke: #A80036; stroke-width: 1.5;" width="10" x="257.5" y="214.9531"/><rect fill="#FEFECE" height="5" style="stroke: #A80036; stroke-width: 1.5;" width="10" x="257.5" y="252.5469"/><text fill="#000000" font-family="sans-serif" font-size="14" font-style="italic" lengthAdjust="spacingAndGlyphs" textLength="169" x="272.5" y="232.9482">«Spring MVC Controller»</text><text fill="#000000" font-family="sans-serif" font-size="14" lengthAdjust="spacingAndGlyphs" textLength="112" x="301" y="249.2451">OwnerController</text><!--entity OwnerRepository--><rect fill="#FEFECE" filter="url(#fzcds9qr2vfn)" height="52.5938" style="stroke: #A80036; stroke-width: 1.5;" width="160" x="274" y="551.9531"/><rect fill="#FEFECE" height="5" style="stroke: #A80036; stroke-width: 1.5;" width="10" x="269" y="556.9531"/><rect fill="#FEFECE" height="5" style="stroke: #A80036; stroke-width: 1.5;" width="10" x="269" y="594.5469"/><text fill="#000000" font-family="sans-serif" font-size="14" font-style="italic" lengthAdjust="spacingAndGlyphs" textLength="140" x="284" y="574.9482">«Spring Repository»</text><text fill="#000000" font-family="sans-serif" font-size="14" lengthAdjust="spacingAndGlyphs" textLength="119" x="294.5" y="591.2451">OwnerRepository</text><!--entity PetController--><rect fill="#FEFECE" filter="url(#fzcds9qr2vfn)" height="52.5938" style="stroke: #A80036; stroke-width: 1.5;" width="189" x="486.5" y="209.9531"/><rect fill="#FEFECE" height="5" style="stroke: #A80036; stroke-width: 1.5;" width="10" x="481.5" y="214.9531"/><rect fill="#FEFECE" height="5" style="stroke: #A80036; stroke-width: 1.5;" width="10" x="481.5" y="252.5469"/><text fill="#000000" font-family="sans-serif" font-size="14" font-style="italic" lengthAdjust="spacingAndGlyphs" textLength="169" x="496.5" y="232.9482">«Spring MVC Controller»</text><text fill="#000000" font-family="sans-serif" font-size="14" lengthAdjust="spacingAndGlyphs" textLength="90" x="536" y="249.2451">PetController</text><!--entity PetRepository--><rect fill="#FEFECE" filter="url(#fzcds9qr2vfn)" height="52.5938" style="stroke: #A80036; stroke-width: 1.5;" width="160" x="439" y="437.9531"/><rect fill="#FEFECE" height="5" style="stroke: #A80036; stroke-width: 1.5;" width="10" x="434" y="442.9531"/><rect fill="#FEFECE" height="5" style="stroke: #A80036; stroke-width: 1.5;" width="10" x="434" y="480.5469"/><text fill="#000000" font-family="sans-serif" font-size="14" font-style="italic" lengthAdjust="spacingAndGlyphs" textLength="140" x="449" y="460.9482">«Spring Repository»</text><text fill="#000000" font-family="sans-serif" font-size="14" lengthAdjust="spacingAndGlyphs" textLength="97" x="470.5" y="477.2451">PetRepository</text><!--entity VetController--><rect fill="#FEFECE" filter="url(#fzcds9qr2vfn)" height="52.5938" style="stroke: #A80036; stroke-width: 1.5;" width="189" x="710.5" y="209.9531"/><rect fill="#FEFECE" height="5" style="stroke: #A80036; stroke-width: 1.5;" width="10" x="705.5" y="214.9531"/><rect fill="#FEFECE" height="5" style="stroke: #A80036; stroke-width: 1.5;" width="10" x="705.5" y="252.5469"/><text fill="#000000" font-family="sans-serif" font-size="14" font-style="italic" lengthAdjust="spacingAndGlyphs" textLength="169" x="720.5" y="232.9482">«Spring MVC Controller»</text><text fill="#000000" font-family="sans-serif" font-size="14" lengthAdjust="spacingAndGlyphs" textLength="90" x="760" y="249.2451">VetController</text><!--entity VetRepository--><rect fill="#FEFECE" filter="url(#fzcds9qr2vfn)" height="52.5938" style="stroke: #A80036; stroke-width: 1.5;" width="160" x="846" y="437.9531"/><rect fill="#FEFECE" height="5" style="stroke: #A80036; stroke-width: 1.5;" width="10" x="841" y="442.9531"/><rect fill="#FEFECE" height="5" style="stroke: #A80036; stroke-width: 1.5;" width="10" x="841" y="480.5469"/><text fill="#000000" font-family="sans-serif" font-size="14" font-style="italic" lengthAdjust="spacingAndGlyphs" textLength="140" x="856" y="460.9482">«Spring Repository»</text><text fill="#000000" font-family="sans-serif" font-size="14" lengthAdjust="spacingAndGlyphs" textLength="97" x="877.5" y="477.2451">VetRepository</text><!--entity VisitController--><rect fill="#FEFECE" filter="url(#fzcds9qr2vfn)" height="52.5938" style="stroke: #A80036; stroke-width: 1.5;" width="189" x="934.5" y="209.9531"/><rect fill="#FEFECE" height="5" style="stroke: #A80036; stroke-width: 1.5;" width="10" x="929.5" y="214.9531"/><rect fill="#FEFECE" height="5" style="stroke: #A80036; stroke-width: 1.5;" width="10" x="929.5" y="252.5469"/><text fill="#000000" font-family="sans-serif" font-size="14" font-style="italic" lengthAdjust="spacingAndGlyphs" textLength="169" x="944.5" y="232.9482">«Spring MVC Controller»</text><text fill="#000000" font-family="sans-serif" font-size="14" lengthAdjust="spacingAndGlyphs" textLength="95" x="981.5" y="249.2451">VisitController</text><!--entity VisitRepository--><rect fill="#FEFECE" filter="url(#fzcds9qr2vfn)" height="52.5938" style="stroke: #A80036; stroke-width: 1.5;" width="160" x="469" y="551.9531"/><rect fill="#FEFECE" height="5" style="stroke: #A80036; stroke-width: 1.5;" width="10" x="464" y="556.9531"/><rect fill="#FEFECE" height="5" style="stroke: #A80036; stroke-width: 1.5;" width="10" x="464" y="594.5469"/><text fill="#000000" font-family="sans-serif" font-size="14" font-style="italic" lengthAdjust="spacingAndGlyphs" textLength="140" x="479" y="574.9482">«Spring Repository»</text><text fill="#000000" font-family="sans-serif" font-size="14" lengthAdjust="spacingAndGlyphs" textLength="102" x="498" y="591.2451">VisitRepository</text><!--entity ClinicEmployee--><ellipse cx="581" cy="38.9531" fill="#FEFECE" filter="url(#fzcds9qr2vfn)" rx="8" ry="8" style="stroke: #A80036; stroke-width: 2.0;"/><path d="M581,46.9531 L581,73.9531 M568,54.9531 L594,54.9531 M581,73.9531 L568,88.9531 M581,73.9531 L594,88.9531 " fill="none" filter="url(#fzcds9qr2vfn)" style="stroke: #A80036; stroke-width: 2.0;"/><text fill="#000000" font-family="sans-serif" font-size="14" lengthAdjust="spacingAndGlyphs" textLength="104" x="529" y="108.9482">ClinicEmployee</text><!--entity RelationalDatabase--><rect fill="#FEFECE" filter="url(#fzcds9qr2vfn)" height="52.5938" style="stroke: #A80036; stroke-width: 1.5;" width="157" x="545.5" y="683.9531"/><rect fill="#FEFECE" height="5" style="stroke: #A80036; stroke-width: 1.5;" width="10" x="540.5" y="688.9531"/><rect fill="#FEFECE" height="5" style="stroke: #A80036; stroke-width: 1.5;" width="10" x="540.5" y="726.5469"/><text fill="#000000" font-family="sans-serif" font-size="14" font-style="italic" lengthAdjust="spacingAndGlyphs" textLength="85" x="581.5" y="706.9482">«Container»</text><text fill="#000000" font-family="sans-serif" font-size="14" lengthAdjust="spacingAndGlyphs" textLength="137" x="555.5" y="723.2451">Relational Database</text><!--link ClinicEmployee to CrashController--><path d="M528.832,81.6601 C461.449,95.8741 341.374,124.7311 245,166.9531 C220.149,177.8401 194.194,193.4131 173.534,206.9591 " fill="none" id="ClinicEmployee-CrashController" style="stroke: #A80036; stroke-width: 1.0; stroke-dasharray: 7.0,7.0;"/><polygon fill="#A80036" points="169.208,209.8171,178.9218,208.1915,173.3792,207.0601,174.5106,201.5176,169.208,209.8171" style="stroke: #A80036; stroke-width: 1.0;"/><text fill="#000000" font-family="sans-serif" font-size="13" lengthAdjust="spacingAndGlyphs" textLength="84" x="309" y="155.02">Uses «HTTP»</text><!--link ClinicEmployee to OwnerController--><path d="M528.765,109.6971 C488.266,139.3471 433.024,179.7921 396.241,206.7231 " fill="none" id="ClinicEmployee-OwnerController" style="stroke: #A80036; stroke-width: 1.0; stroke-dasharray: 7.0,7.0;"/><polygon fill="#A80036" points="391.849,209.9381,401.474,207.8502,395.8837,206.985,396.7489,201.3947,391.849,209.9381" style="stroke: #A80036; stroke-width: 1.0;"/><text fill="#000000" font-family="sans-serif" font-size="13" lengthAdjust="spacingAndGlyphs" textLength="84" x="484" y="155.02">Uses «HTTP»</text><!--link ClinicEmployee to PetController--><path d="M581,111.9921 C581,140.6261 581,178.4131 581,204.6061 " fill="none" id="ClinicEmployee-PetController" style="stroke: #A80036; stroke-width: 1.0; stroke-dasharray: 7.0,7.0;"/><polygon fill="#A80036" points="581,209.6841,585,200.6841,581,204.6841,577,200.6841,581,209.6841" style="stroke: #A80036; stroke-width: 1.0;"/><text fill="#000000" font-family="sans-serif" font-size="13" lengthAdjust="spacingAndGlyphs" textLength="84" x="582" y="155.02">Uses «HTTP»</text><!--link ClinicEmployee to VetController--><path d="M633.235,109.6971 C673.734,139.3471 728.976,179.7921 765.759,206.7231 " fill="none" id="ClinicEmployee-VetController" style="stroke: #A80036; stroke-width: 1.0; stroke-dasharray: 7.0,7.0;"/><polygon fill="#A80036" points="770.151,209.9381,765.2511,201.3947,766.1163,206.985,760.526,207.8502,770.151,209.9381" style="stroke: #A80036; stroke-width: 1.0;"/><text fill="#000000" font-family="sans-serif" font-size="13" lengthAdjust="spacingAndGlyphs" textLength="84" x="700" y="155.02">Uses «HTTP»</text><!--link ClinicEmployee to VisitController--><path d="M633.168,81.6601 C700.551,95.8741 820.626,124.7311 917,166.9531 C941.851,177.8401 967.806,193.4131 988.466,206.9591 " fill="none" id="ClinicEmployee-VisitController" style="stroke: #A80036; stroke-width: 1.0; stroke-dasharray: 7.0,7.0;"/><polygon fill="#A80036" points="992.792,209.8171,987.4894,201.5176,988.6208,207.0601,983.0782,208.1915,992.792,209.8171" style="stroke: #A80036; stroke-width: 1.0;"/><text fill="#000000" font-family="sans-serif" font-size="13" lengthAdjust="spacingAndGlyphs" textLength="84" x="891" y="155.02">Uses «HTTP»</text><!--link ClinicService to OwnerRepository--><path d="M558.358,366.8311 C514.566,379.6221 459.086,401.7331 421,437.9531 C389.491,467.9181 371.044,515.7501 361.736,546.8811 " fill="none" id="ClinicService-OwnerRepository" style="stroke: #A80036; stroke-width: 1.0; stroke-dasharray: 7.0,7.0;"/><polygon fill="#A80036" points="360.32,551.7291,366.6827,544.2114,361.7217,546.9296,359.0035,541.9687,360.32,551.7291" style="stroke: #A80036; stroke-width: 1.0;"/><!--link ClinicService to PetRepository--><path d="M602.223,377.1481 C585.896,394.0801 564.468,416.3011 547.445,433.9551 " fill="none" id="ClinicService-PetRepository" style="stroke: #A80036; stroke-width: 1.0; stroke-dasharray: 7.0,7.0;"/><polygon fill="#A80036" points="543.662,437.8781,552.7878,434.1742,547.1319,434.2782,547.0279,428.6223,543.662,437.8781" style="stroke: #A80036; stroke-width: 1.0;"/><!--link ClinicService to VetRepository--><path d="M695.222,377.0081 C742.296,394.6411 804.817,418.0601 852.91,436.0751 " fill="none" id="ClinicService-VetRepository" style="stroke: #A80036; stroke-width: 1.0; stroke-dasharray: 7.0,7.0;"/><polygon fill="#A80036" points="857.813,437.9111,850.7871,431.0092,853.1305,436.1579,847.9818,438.5013,857.813,437.9111" style="stroke: #A80036; stroke-width: 1.0;"/><!--link ClinicService to VisitRepository--><path d="M629.269,377.1081 C630.849,405.8491 630.541,453.3381 616,490.9531 C607.855,512.0231 592.819,532.1841 579.052,547.7331 " fill="none" id="ClinicService-VisitRepository" style="stroke: #A80036; stroke-width: 1.0; stroke-dasharray: 7.0,7.0;"/><polygon fill="#A80036" points="575.584,551.5851,584.5788,547.5734,578.9297,547.8694,578.6337,542.2203,575.584,551.5851" style="stroke: #A80036; stroke-width: 1.0;"/><!--link OwnerController to ClinicService--><path d="M418.605,263.0081 C460.953,280.5741 517.143,303.8831 560.505,321.8701 " fill="none" id="OwnerController-ClinicService" style="stroke: #A80036; stroke-width: 1.0; stroke-dasharray: 7.0,7.0;"/><polygon fill="#A80036" points="565.193,323.8141,558.4123,316.6711,560.5745,321.8985,555.3472,324.0607,565.193,323.8141" style="stroke: #A80036; stroke-width: 1.0;"/><!--link OwnerRepository to RelationalDatabase--><path d="M303.061,605.0611 C281.977,619.0161 265.462,636.8811 280,653.9531 C312.768,692.4316 449.31,704.3242 540.201,707.9437 " fill="none" id="OwnerRepository-RelationalDatabase" style="stroke: #A80036; stroke-width: 1.0; stroke-dasharray: 7.0,7.0;"/><polygon fill="#A80036" points="545.306,708.1402,536.467,703.7961,540.3097,707.9474,536.1584,711.7901,545.306,708.1402" style="stroke: #A80036; stroke-width: 1.0;"/><text fill="#000000" font-family="sans-serif" font-size="13" lengthAdjust="spacingAndGlyphs" textLength="210" x="281" y="650.02">Reads from and writes to «JDBC»</text><!--link PetController to ClinicService--><path d="M591.553,263.1481 C598.391,279.7951 607.328,301.5551 614.517,319.0611 " fill="none" id="PetController-ClinicService" style="stroke: #A80036; stroke-width: 1.0; stroke-dasharray: 7.0,7.0;"/><polygon fill="#A80036" points="616.496,323.8781,616.7791,314.0333,614.5975,319.2526,609.3783,317.0709,616.496,323.8781" style="stroke: #A80036; stroke-width: 1.0;"/><!--link PetRepository to OwnerRepository--><path d="M481.146,491.1481 C455.678,508.4351 422.087,531.2371 395.827,549.0611 " fill="none" id="PetRepository-OwnerRepository" style="stroke: #A80036; stroke-width: 1.0; stroke-dasharray: 7.0,7.0;"/><polygon fill="#A80036" points="391.678,551.8781,401.3709,550.1326,395.8148,549.0698,396.8776,543.5137,391.678,551.8781" style="stroke: #A80036; stroke-width: 1.0;"/><!--link PetRepository to RelationalDatabase--><path d="M572.791,491.2031 C623.261,518.9661 694.662,568.5591 720,636.9531 C726.789,655.2786 715.79,669.8936 699.099,681.0623 " fill="none" id="PetRepository-RelationalDatabase" style="stroke: #A80036; stroke-width: 1.0; stroke-dasharray: 7.0,7.0;"/><polygon fill="#A80036" points="694.74,683.8277,704.4825,682.3839,698.962,681.1492,700.1967,675.6287,694.74,683.8277" style="stroke: #A80036; stroke-width: 1.0;"/><text fill="#000000" font-family="sans-serif" font-size="13" lengthAdjust="spacingAndGlyphs" textLength="210" x="717" y="583.02">Reads from and writes to «JDBC»</text><!--link PetRepository to VisitRepository--><path d="M525.883,491.1481 C530.304,507.6531 536.071,529.1841 540.739,546.6111 " fill="none" id="PetRepository-VisitRepository" style="stroke: #A80036; stroke-width: 1.0; stroke-dasharray: 7.0,7.0;"/><polygon fill="#A80036" points="542.149,551.8781,543.6832,542.1495,540.8548,547.0485,535.9558,544.2202,542.149,551.8781" style="stroke: #A80036; stroke-width: 1.0;"/><!--link VetController to ClinicService--><path d="M764.163,263.1481 C736.689,280.4351 700.451,303.2371 672.123,321.0611 " fill="none" id="VetController-ClinicService" style="stroke: #A80036; stroke-width: 1.0; stroke-dasharray: 7.0,7.0;"/><polygon fill="#A80036" points="667.647,323.8781,677.3949,322.4715,671.8792,321.2157,673.135,315.7,667.647,323.8781" style="stroke: #A80036; stroke-width: 1.0;"/><!--link VetRepository to RelationalDatabase--><path d="M937.076,491.1861 C950.246,526.2341 966.828,589.1621 936,628.9531 C908.259,664.7605 790.76,687.479 708.166,699.3392 " fill="none" id="VetRepository-RelationalDatabase" style="stroke: #A80036; stroke-width: 1.0; stroke-dasharray: 7.0,7.0;"/><polygon fill="#A80036" points="702.778,700.1047,712.2509,702.7998,707.7284,699.4019,711.1263,694.8793,702.778,700.1047" style="stroke: #A80036; stroke-width: 1.0;"/><text fill="#000000" font-family="sans-serif" font-size="13" lengthAdjust="spacingAndGlyphs" textLength="210" x="954" y="583.02">Reads from and writes to «JDBC»</text><!--link VisitController to ClinicService--><path d="M937.277,263.0081 C865.683,282.9541 767.515,310.3051 700.912,328.8611 " fill="none" id="VisitController-ClinicService" style="stroke: #A80036; stroke-width: 1.0; stroke-dasharray: 7.0,7.0;"/><polygon fill="#A80036" points="695.772,330.2931,705.5156,331.7295,700.5884,328.9505,703.3673,324.0233,695.772,330.2931" style="stroke: #A80036; stroke-width: 1.0;"/><!--link VisitRepository to RelationalDatabase--><path d="M518.039,605.1661 C504.486,619.6131 493.745,637.9117 504,653.9531 C512.851,667.799 526.137,678.2413 540.685,686.1007 " fill="none" id="VisitRepository-RelationalDatabase" style="stroke: #A80036; stroke-width: 1.0; stroke-dasharray: 7.0,7.0;"/><polygon fill="#A80036" points="545.237,688.4579,539.0854,680.7665,540.7973,686.1581,535.4057,687.87,545.237,688.4579" style="stroke: #A80036; stroke-width: 1.0;"/><text fill="#000000" font-family="sans-serif" font-size="13" lengthAdjust="spacingAndGlyphs" textLength="210" x="505" y="650.02">Reads from and writes to «JDBC»</text><!--
@startuml
title Spring PetClinic - Web Application - Components
actor ClinicEmployee
[Relational Database] <<Container>> as RelationalDatabase
package WebApplication {
[ClinicService] <<Spring Service>> as ClinicService
[CrashController] <<Spring MVC Controller>> as CrashController
[OwnerController] <<Spring MVC Controller>> as OwnerController
[OwnerRepository] <<Spring Repository>> as OwnerRepository
[PetController] <<Spring MVC Controller>> as PetController
[PetRepository] <<Spring Repository>> as PetRepository
[VetController] <<Spring MVC Controller>> as VetController
[VetRepository] <<Spring Repository>> as VetRepository
[VisitController] <<Spring MVC Controller>> as VisitController
[VisitRepository] <<Spring Repository>> as VisitRepository
}

ClinicEmployee ..> CrashController : Uses <<HTTP>>
ClinicEmployee ..> OwnerController : Uses <<HTTP>>
ClinicEmployee ..> PetController : Uses <<HTTP>>
ClinicEmployee ..> VetController : Uses <<HTTP>>
ClinicEmployee ..> VisitController : Uses <<HTTP>>
ClinicService ..> OwnerRepository
ClinicService ..> PetRepository
ClinicService ..> VetRepository
ClinicService ..> VisitRepository
OwnerController ..> ClinicService
OwnerRepository ..> RelationalDatabase : Reads from and writes to <<JDBC>>
PetController ..> ClinicService
PetRepository ..> OwnerRepository
PetRepository ..> RelationalDatabase : Reads from and writes to <<JDBC>>
PetRepository ..> VisitRepository
VetController ..> ClinicService
VetRepository ..> RelationalDatabase : Reads from and writes to <<JDBC>>
VisitController ..> ClinicService
VisitRepository ..> RelationalDatabase : Reads from and writes to <<JDBC>>
@enduml

PlantUML version 1.2019.05(Sat Apr 20 18:45:36 CEST 2019)
(GPL source distribution)
Java Runtime: OpenJDK Runtime Environment
JVM: OpenJDK 64-Bit Server VM
Java Version: 1.8.0_202-release-1483-b44
Operating System: Linux
OS Version: 4.13.0-45-generic
Default Encoding: UTF-8
Language: en
Country: US
--></g></svg>